# xmcd CD database file
#
# Track frame offsets:
#	150
#	36060
#	65121
#	104103
#	132735
#	152943
#	189753
#	205801
#	226440
#	250383
#
# Disc length: 3821 seconds
#
# Revision: 2
# Processed by: cddbd v1.5.2PL0 Copyright (c) Steve Scherf et al.
# Submitted via: CDex 1.70beta2
#
DISCID=960eeb0a
DTITLE=Eric Clapton - the dance of the bell Disc1
DYEAR=1999
DGENRE=Rock
TTITLE0=My Father's Eyes
TTITLE1=Pilgrim
TTITLE2=River of Tears
TTITLE3=Going Down Slow
TTITLE4=Hoochie Coochie Man
TTITLE5=She's Gone
TTITLE6=Ramblin' On My Mind
TTITLE7=Tears in Heaven
TTITLE8=Bell Bottom Blues
TTITLE9=Change the World
EXTD=YEAR: 1999
EXTT0=
EXTT1=
EXTT2=
EXTT3=
EXTT4=
EXTT5=
EXTT6=
EXTT7=
EXTT8=
EXTT9=
PLAYORDER=
